/* XPM */
static char * arch_icon_xpm[] = {
"20 20 77 1",
" 	c None",
".	c #0CAAD3",
"+	c #18AED5",
"@	c #0AAAD3",
"#	c #0FADD4",
"$	c #1BB1D7",
"%	c #10ABD4",
"&	c #0FACD4",
"*	c #27B7DB",
"=	c #00B0D7",
"-	c #05AFD7",
";	c #0AAFD6",
">	c #24B6DB",
",	c #0AB1D7",
"'	c #01B0D7",
")	c #06B0D7",
"!	c #14B1D7",
"~	c #1FB6D9",
"{	c #1DB5D8",
"]	c #10B2D8",
"^	c #00B1D8",
"/	c #31B9DA",
"(	c #2AB9DB",
"_	c #29B8DA",
":	c #27B8DB",
"<	c #23B6D9",
"[	c #14B5DA",
"}	c #21B6DA",
"|	c #34BDDE",
"1	c #2FBBDE",
"2	c #2CB9DC",
"3	c #2BB9DC",
"4	c #28B7D9",
"5	c #26B7D9",
"6	c #34BBDC",
"7	c #39BEDF",
"8	c #37BDDE",
"9	c #2CBADD",
"0	c #23B4D9",
"a	c #20B2D7",
"b	c #24B5D9",
"c	c #41BFDE",
"d	c #38BADA",
"e	c #1AAFD6",
"f	c #08AAD2",
"g	c #06A9D3",
"h	c #07A9D2",
"i	c #14ADD5",
"j	c #1EB0D6",
"k	c #08A9D2",
"l	c #07A9D3",
"m	c #09AAD3",
"n	c #05ABD4",
"o	c #13AED4",
"p	c #08A9D3",
"q	c #09ABD3",
"r	c #07AAD3",
"s	c #07A9D4",
"t	c #0BAAD3",
"u	c #0EADD5",
"v	c #06A9D2",
"w	c #09A9D2",
"x	c #04ACD4",
"y	c #07AAD4",
"z	c #06ABD3",
"A	c #05AAD3",
"B	c #07ABD4",
"C	c #0FABD4",
"D	c #0AACD4",
"E	c #05A9D3",
"F	c #13ADD4",
"G	c #12ACD4",
"H	c #07ABD3",
"I	c #05ACD4",
"J	c #08ABD4",
"K	c #08AAD3",
"L	c #1BB0D6",
"                    ",
"         .+         ",
"         @#         ",
"        $%&*        ",
"        =-;>        ",
"        ,')!        ",
"        ~{]^/       ",
"       (_:<[}       ",
"      |123_456      ",
"      7890aaab      ",
"     cdefgg@hhi     ",
"     jklm@nkhkho    ",
"    @phkq  rsplt    ",
"   uvmhk    pwhhx   ",
"   ykhmz    zkAB.   ",
"  Ch@wwh    wg@@D   ",
"  @wEk@F     thhtG  ",
" BwkH          .kwI ",
" rB              JK ",
"e                  L"};
